# xmcd CD database file
#
# Track frame offsets:
#	150
#	18572
#	40694
#	54775
#	75783
#	92311
#	106447
#	126038
#	144616
#	156502
#	170556
#	188284
#
# Disc length: 2675 seconds
#
# Revision: 0
# Processed by: cddbd v1.5.2PL0 Copyright (c) Steve Scherf et al.
# Submitted via: CDex 1.51
#
DISCID=850a710c
DTITLE=Andy Baylor - The Bush Is Full Of Ghosts
DYEAR=1900
DGENRE=Country
TTITLE0=Andy Baylor - The Bush Is Full Of Ghosts
TTITLE1=Andy Baylor - Brunswick Street
TTITLE2=Andy Baylor - Strange Land
TTITLE3=Andy Baylor - One Day I'll Get Lucky
TTITLE4=Andy Baylor - Never Say Never
TTITLE5=Andy Baylor - That's My Business
TTITLE6=Andy Baylor - King Boozoo
TTITLE7=Andy Baylor - Fire
TTITLE8=Andy Baylor - Big Broard Land
TTITLE9=Andy Baylor - Starin' At The Moon
TTITLE10=Andy Baylor - St. Kilda Song
TTITLE11=Andy Baylor - Surfing On The No 15 Tram
EXTD=
EXTT0=
EXTT1=
EXTT2=
EXTT3=
EXTT4=
EXTT5=
EXTT6=
EXTT7=
EXTT8=
EXTT9=
EXTT10=
EXTT11=
PLAYORDER=
